<svg width="963" height="1051" viewBox="0 0 963 1051" fill="none" xmlns="http://www.w3.org/2000/svg">
<path d="M556.6 0.00305842C557.666 0.00296778 557.666 0.00296778 558.753 0.00287531C585.878 0.0357663 585.878 0.0357661 597.225 4.19056C597.225 4.85056 597.225 5.51056 597.225 6.19056C597.9 6.37232 598.576 6.55407 599.272 6.74134C600.164 6.99271 601.056 7.24407 601.975 7.50306C602.857 7.74669 603.738 7.99032 604.647 8.24134C607.303 9.21938 609.013 10.4552 611.225 12.1906C612.926 12.8712 612.926 12.8712 614.662 13.5656C618.454 15.2951 620.42 17.1589 623.225 20.1906C623.988 20.7474 624.751 21.3043 625.537 21.8781C626.373 22.5277 626.373 22.5277 627.225 23.1906C627.225 23.8506 627.225 24.5106 627.225 25.1906C627.988 25.4174 628.751 25.6443 629.537 25.8781C632.854 27.4978 633.449 29.0089 635.225 32.1906C636.871 33.8777 638.537 35.5451 640.225 37.1906C643.225 40.7078 643.225 40.7078 643.225 44.1906C643.885 44.1906 644.545 44.1906 645.225 44.1906C648.178 47.2617 648.751 50.0239 649.225 54.1906C649.885 54.1906 650.545 54.1906 651.225 54.1906C652.355 56.8761 653.479 59.5638 654.6 62.2531C655.075 63.3813 655.075 63.3813 655.561 64.5324C657.434 69.0396 658.934 73.4858 660.225 78.1906C660.596 78.8918 660.967 79.5931 661.35 80.3156C662.46 82.6945 662.369 84.5979 662.225 87.1906C662.885 87.1906 663.545 87.1906 664.225 87.1906C664.896 90.2937 665.561 93.3982 666.225 96.5031C666.511 97.8247 666.511 97.8247 666.803 99.173C666.983 100.021 667.164 100.868 667.35 101.741C667.601 102.912 667.601 102.912 667.858 104.106C668.225 106.191 668.225 106.191 668.225 109.191C668.885 109.191 669.545 109.191 670.225 109.191C672.112 113.479 673.807 117.718 675.225 122.191C675.885 122.191 676.545 122.191 677.225 122.191C678.06 123.768 678.06 123.768 678.912 125.378C681.71 130.249 685.525 133.611 689.787 137.191C691.988 139.039 693.601 140.663 695.412 142.941C697.24 145.209 698.546 146.138 701.225 147.191C701.225 147.851 701.225 148.511 701.225 149.191C702.091 149.595 702.091 149.595 702.975 150.007C705.256 151.207 707.182 152.56 709.225 154.128C709.885 154.632 710.545 155.136 711.225 155.655C711.885 156.162 712.545 156.669 713.225 157.191C713.952 157.714 714.679 158.237 715.428 158.776C717.225 160.191 717.225 160.191 717.975 161.878C718.963 171.02 718.963 171.02 716.412 175.066C712.238 179.121 712.238 179.121 708.799 179.358C707.846 179.318 706.894 179.278 705.912 179.237C704.845 179.196 703.778 179.155 702.679 179.113C701.539 179.056 700.399 178.999 699.225 178.941C698.062 178.888 696.899 178.836 695.7 178.782C688.609 178.436 681.539 177.967 674.475 177.253C673.721 177.179 672.967 177.104 672.19 177.027C667.976 176.556 664.193 175.682 660.225 174.191C660.555 175.242 660.885 176.294 661.225 177.378C662.064 180.579 662.422 182.932 662.225 186.191C662.885 186.191 663.545 186.191 664.225 186.191C666.286 196.463 666.566 206.49 666.54 216.932C666.537 219.648 666.561 222.363 666.586 225.079C666.588 226.823 666.589 228.568 666.588 230.312C666.597 231.115 666.607 231.918 666.616 232.746C666.575 237.688 665.74 240.819 663.225 245.191C662.501 247.238 662.501 247.238 662.057 249.179C661.885 249.881 661.714 250.583 661.537 251.307C661.372 252.032 661.207 252.756 661.037 253.503C660.866 254.254 660.694 255.005 660.518 255.779C659.368 261.047 658.493 265.795 659.225 271.191C660.548 272.534 661.883 273.865 663.225 275.191C664.656 277.445 665.994 279.674 667.287 282.003C667.626 282.594 667.964 283.185 668.313 283.794C671.831 290.034 674.303 296.271 676.225 303.191C676.596 304.098 676.967 305.006 677.35 305.941C678.225 308.191 678.225 308.191 678.225 311.191C678.885 311.191 679.545 311.191 680.225 311.191C684.654 322.098 687.419 333.57 689.225 345.191C691.865 344.531 694.505 343.871 697.225 343.191C697.225 342.531 697.225 341.871 697.225 341.191C704.072 337.37 710.785 333.724 718.201 331.112C720.283 330.315 720.283 330.315 721.654 328.694C723.802 326.638 725.88 326.198 728.725 325.378C734.248 323.653 738.981 321.309 743.947 318.362C746.225 317.191 746.225 317.191 749.225 317.191C749.225 316.531 749.225 315.871 749.225 315.191C750.212 314.853 751.2 314.515 752.217 314.167C753.511 313.717 754.806 313.266 756.1 312.816C756.751 312.594 757.402 312.372 758.072 312.144C760.99 311.121 763.01 310.405 765.225 308.191C766.912 307.587 768.625 307.052 770.35 306.566C771.715 306.175 771.715 306.175 773.108 305.776C773.806 305.583 774.505 305.39 775.225 305.191C775.225 304.531 775.225 303.871 775.225 303.191C776.462 302.737 777.7 302.283 778.975 301.816C781.24 300.974 783.336 300.132 785.475 299.003C787.225 298.191 787.225 298.191 791.225 298.191C791.225 297.531 791.225 296.871 791.225 296.191C792.025 295.896 792.025 295.896 792.842 295.596C795.303 294.69 797.764 293.784 800.225 292.878C801.064 292.569 801.903 292.261 802.768 291.943C806.722 290.486 810.673 289.024 814.615 287.534C819.587 285.683 823.896 284.191 829.225 284.191C829.225 283.531 829.225 282.871 829.225 282.191C831.284 281.515 833.348 280.851 835.412 280.191C836.561 279.819 837.709 279.448 838.893 279.066C841.868 278.284 844.178 278.007 847.225 278.191C847.225 277.531 847.225 276.871 847.225 276.191C847.865 276.05 848.505 275.909 849.165 275.763C852.082 275.118 854.997 274.467 857.912 273.816C858.92 273.594 859.927 273.372 860.965 273.144C861.941 272.925 862.918 272.705 863.924 272.48C864.82 272.281 865.715 272.082 866.638 271.877C869.276 271.177 871.7 270.221 874.225 269.191C878.537 268.151 882.886 267.334 887.25 266.547C889.01 266.229 890.766 265.893 892.522 265.554C901.359 264.091 910.156 263.951 919.1 263.878C920.348 263.86 921.597 263.843 922.883 263.825C929.898 263.83 935.786 264.325 942.225 267.191C943.155 267.604 944.086 268.018 945.045 268.444C952.899 272.904 958.516 279.471 961.225 288.191C963.391 301.913 964.199 318.368 960.006 331.683C959.181 334.331 958.756 336.887 958.35 339.628C957.418 345.031 955.568 349.856 953.514 354.925C952.281 358.047 951.234 361.178 950.225 364.378C948.678 369.119 946.74 373.437 944.432 377.851C943.334 379.979 942.356 382.115 941.412 384.316C939.161 389.485 936.598 394.496 934.042 399.519C932.267 403.025 930.61 406.506 929.225 410.191C928.565 410.191 927.905 410.191 927.225 410.191C927.002 411 926.779 411.81 926.549 412.644C924.882 417.11 922.557 420.909 920.037 424.941C919.289 426.148 919.289 426.148 918.525 427.38C912.466 437.092 905.776 446.183 898.755 455.216C896.001 458.775 893.505 462.304 891.225 466.191C889.58 467.879 887.911 469.544 886.225 471.191C884.645 473.054 883.092 474.935 881.557 476.835C881.117 477.282 880.678 477.73 880.225 478.191C879.565 478.191 878.905 478.191 878.225 478.191C877.895 479.181 877.565 480.171 877.225 481.191C876.565 481.191 875.905 481.191 875.225 481.191C874.998 481.768 874.771 482.346 874.537 482.941C872.884 485.775 870.795 487.158 868.225 489.191C867.35 490.236 866.496 491.3 865.662 492.378C863.151 495.276 862.687 495.474 859.225 496.191C858.946 496.791 858.668 497.392 858.381 498.011C856.081 502.346 851.249 504.581 847.225 507.191C846.677 507.548 846.129 507.905 845.565 508.274C834.389 515.522 834.389 515.522 829.225 516.191C829.225 516.851 829.225 517.511 829.225 518.191C828.585 518.438 827.946 518.686 827.287 518.941C824.93 519.903 822.61 520.901 820.287 521.941C819.119 522.459 819.119 522.459 817.928 522.987C815.956 523.865 813.988 524.752 812.022 525.644C804.889 528.81 797.872 531.237 790.338 533.257C787.027 534.25 784.248 535.59 781.233 537.241C776.328 539.56 770.654 541.191 765.225 541.191C765.225 541.851 765.225 542.511 765.225 543.191C763.245 543.521 761.265 543.851 759.225 544.191C759.225 544.851 759.225 545.511 759.225 546.191C757.616 547.088 757.616 547.088 755.975 548.003C755.334 548.377 754.693 548.751 754.033 549.136C752.714 549.905 751.38 550.649 750.037 551.378C745.686 555.729 743.976 561.321 743.912 567.378C744.067 571.04 744.469 574.598 745.225 578.191C745.885 578.191 746.545 578.191 747.225 578.191C747.493 578.713 747.761 579.235 748.037 579.773C750.501 584.4 753.203 588.618 756.35 592.816C759.366 596.852 761.399 600.525 763.225 605.191C763.885 605.521 764.545 605.851 765.225 606.191C765.225 607.511 765.225 608.831 765.225 610.191C765.885 610.191 766.545 610.191 767.225 610.191C767.637 611.172 768.05 612.153 768.475 613.163C770.593 618.106 772.931 622.942 775.264 627.786C778.27 634.102 781.108 640.379 782.287 647.316C782.745 649.974 783.282 652.353 784.189 654.9C788.085 667.274 787.593 681.036 787.537 693.878C787.535 695.198 787.535 695.198 787.532 696.544C787.486 709.626 787.068 722.373 784.225 735.191C784.027 736.098 783.828 737.005 783.624 737.94C782.621 742.43 781.565 746.906 780.408 751.359C780.228 752.052 780.049 752.746 779.863 753.461C779.225 755.191 779.225 755.191 777.225 757.191C776.565 759.173 775.97 761.177 775.412 763.191C773.195 770.659 769.998 777.168 766.1 783.878C764.186 787.26 762.691 790.598 761.225 794.191C760.565 794.191 759.905 794.191 759.225 794.191C758.982 794.915 758.74 795.639 758.49 796.386C757.06 799.555 755.351 801.536 752.975 804.066C750.165 807.083 747.443 810.11 744.85 813.316C743.984 814.264 743.117 815.213 742.225 816.191C741.235 816.191 740.245 816.191 739.225 816.191C738.998 816.773 738.771 817.356 738.537 817.956C736.865 820.803 734.945 822.09 732.225 823.941C731.338 824.554 730.451 825.168 729.537 825.8C727.225 827.191 727.225 827.191 725.225 827.191C725.225 827.851 725.225 828.511 725.225 829.191C722.585 829.851 719.945 830.511 717.225 831.191C717.225 831.851 717.225 832.511 717.225 833.191C710.999 836.288 705.09 838.101 698.225 839.191C698.225 839.851 698.225 840.511 698.225 841.191C697.297 841.562 696.369 841.933 695.412 842.316C691.143 844.14 687.137 846.389 683.076 848.632C680.333 850.131 677.574 851.585 674.787 853.003C674.005 853.401 673.222 853.8 672.416 854.21C670.355 855.132 668.428 855.724 666.225 856.191C666.225 856.851 666.225 857.511 666.225 858.191C664.544 859.386 662.802 860.498 661.037 861.566C654.158 865.381 654.158 865.381 649.225 871.191C648.276 871.624 647.327 872.057 646.35 872.503C642.928 874.351 641.897 875.753 640.225 879.191C640.967 879.417 641.71 879.644 642.475 879.878C645.747 881.44 647.085 883.313 649.225 886.191C649.885 886.521 650.545 886.851 651.225 887.191C651.225 887.851 651.225 888.511 651.225 889.191C651.956 889.428 652.687 889.665 653.44 889.909C656.65 891.386 658.384 893.116 660.787 895.691C663.491 898.577 665.643 900.541 669.225 902.191C671.797 904.631 674.219 907.185 676.662 909.753C679.337 912.298 682.139 914.178 685.225 916.191C687.1 917.816 687.1 917.816 688.225 919.191C688.225 919.851 688.225 920.511 688.225 921.191C689.029 921.479 689.834 921.768 690.662 922.066C693.225 923.191 693.225 923.191 694.225 925.191C695.586 925.84 695.586 925.84 696.975 926.503C701.564 928.886 704.353 932.052 707.475 936.128C711.241 940.758 716.587 944.311 722.225 946.191C727.205 946.661 731.67 947.069 736.1 944.566C736.801 943.782 737.502 942.998 738.225 942.191C739.112 941.221 739.999 940.252 740.912 939.253C742.979 936.516 744.103 934.383 745.225 931.191C745.885 930.201 746.545 929.211 747.225 928.191C747.885 928.191 748.545 928.191 749.225 928.191C749.225 927.531 749.225 926.871 749.225 926.191C754.099 920.739 759.029 918.431 766.358 918.011C777.465 917.791 787.184 918.636 797.022 924.015C799.663 925.424 802.353 926.359 805.225 927.191C805.225 927.851 805.225 928.511 805.225 929.191C805.912 929.434 806.599 929.678 807.307 929.929C810.745 931.415 813.793 933.33 816.912 935.378C817.524 935.776 818.135 936.174 818.765 936.584C833.017 945.903 833.017 945.903 837.225 950.191C838.409 951.132 839.597 952.07 840.787 953.003C844.072 955.757 845.065 958.035 846.225 962.191C847.215 962.521 848.205 962.851 849.225 963.191C850.576 966.062 850.576 966.062 851.85 969.628C852.488 971.39 852.488 971.39 853.139 973.187C853.497 974.178 853.856 975.169 854.225 976.191C854.555 976.851 854.885 977.511 855.225 978.191C855.322 980.335 855.355 982.482 855.35 984.628C855.352 985.782 855.355 986.935 855.358 988.124C855.225 991.191 855.225 991.191 854.225 994.191C853.565 994.191 852.905 994.191 852.225 994.191C852.07 995.242 852.07 995.242 851.912 996.316C850.591 1001.84 847.67 1006.04 844.346 1010.53C843.082 1012.27 843.082 1012.27 842.225 1014.82C840.883 1018 838.682 1019.79 836.225 1022.19C835.914 1022.84 835.603 1023.48 835.283 1024.14C833.277 1028.02 829.538 1030.44 826.225 1033.19C824.858 1034.37 824.858 1034.37 823.463 1035.57C822.518 1036.38 821.573 1037.18 820.6 1038C819.721 1038.75 818.842 1039.5 817.936 1040.27C815.09 1042.29 812.568 1043.26 809.225 1044.19C809.225 1044.85 809.225 1045.51 809.225 1046.19C801.426 1049.95 794.205 1050.6 785.662 1050.63C784.706 1050.64 783.749 1050.65 782.764 1050.66C775.87 1050.58 769.781 1049.29 763.225 1047.19C763.225 1046.53 763.225 1045.87 763.225 1045.19C762.565 1045.19 761.905 1045.19 761.225 1045.19C761.225 1044.53 761.225 1043.87 761.225 1043.19C760.142 1043 760.142 1043 759.037 1042.82C756.268 1042.2 753.828 1041.31 751.225 1040.19C751.225 1039.53 751.225 1038.87 751.225 1038.19C750.704 1037.96 750.183 1037.72 749.647 1037.48C740.878 1032.81 731.398 1026.01 725.225 1018.19C725.225 1017.53 725.225 1016.87 725.225 1016.19C724.665 1015.95 724.106 1015.7 723.529 1015.45C716.544 1011.64 710.841 1005.29 706.479 998.722C705.204 996.887 705.204 996.887 702.225 996.191C697.452 991.872 697.452 991.872 696.225 988.191C695.565 988.191 694.905 988.191 694.225 988.191C694.225 986.871 694.225 985.551 694.225 984.191C693.687 983.992 693.15 983.794 692.596 983.589C689.182 981.576 686.893 978.769 684.287 975.816C680.796 971.88 677.348 968.483 673.225 965.191C673.06 964.489 672.895 963.788 672.725 963.066C672.56 962.447 672.395 961.828 672.225 961.191C670.573 960.488 668.906 959.821 667.225 959.191C666.895 958.201 666.565 957.211 666.225 956.191C665.565 956.191 664.905 956.191 664.225 956.191C663.895 954.871 663.565 953.551 663.225 952.191C662.565 952.191 661.905 952.191 661.225 952.191C659.893 950.616 659.893 950.616 658.412 948.503C654.598 943.254 650.309 939.204 645.225 935.191C643.412 933.566 643.412 933.566 642.225 932.191C642.225 931.531 642.225 930.871 642.225 930.191C641.565 930.191 640.905 930.191 640.225 930.191C640.142 929.407 640.06 928.623 639.975 927.816C639.508 925.078 639.508 925.078 637.35 924.003C636.649 923.735 635.947 923.467 635.225 923.191C632.225 921.191 632.225 921.191 631.225 918.191C629.762 916.704 629.762 916.704 627.975 915.316C622.819 911.044 618.442 906.372 614.225 901.191C613.627 901.5 613.029 901.809 612.412 902.128C610.225 903.191 610.225 903.191 607.225 904.191C607.225 904.851 607.225 905.511 607.225 906.191C606.297 906.314 606.297 906.314 605.35 906.441C603.081 906.977 603.081 906.977 602.225 909.003C601.895 909.725 601.565 910.447 601.225 911.191C599.225 913.441 599.225 913.441 597.225 915.191C596.565 915.191 595.905 915.191 595.225 915.191C595.225 915.851 595.225 916.511 595.225 917.191C593.556 918.757 591.813 920.246 590.037 921.691C589.074 922.485 588.111 923.279 587.119 924.097C584.225 926.191 584.225 926.191 581.424 927.284C580.698 927.583 579.973 927.882 579.225 928.191C578.895 929.181 578.565 930.171 578.225 931.191C575.662 932.378 575.662 932.378 573.225 933.191C573.225 933.851 573.225 934.511 573.225 935.191C567.813 939.191 567.813 939.191 565.225 939.191C565.225 939.851 565.225 940.511 565.225 941.191C559.475 944.191 559.475 944.191 557.225 944.191C556.895 945.181 556.565 946.171 556.225 947.191C553.929 948.274 551.59 949.269 549.225 950.191C548.503 950.582 547.781 950.974 547.037 951.378C545.225 952.191 545.225 952.191 541.225 952.191C541.225 952.851 541.225 953.511 541.225 954.191C530.411 959.875 518.569 961.55 506.67 963.697C504.103 964.163 504.103 964.163 501.225 965.191C485.309 967.628 469.09 966.16 453.225 964.191C453.225 963.531 453.225 962.871 453.225 962.191C452.049 962.252 452.049 962.252 450.85 962.316C446.172 962.154 441.784 961.2 437.225 960.191C437.225 959.531 437.225 958.871 437.225 958.191C435.987 957.964 434.75 957.737 433.475 957.503C427.409 956.164 421.891 953.686 416.225 951.191C414.809 950.585 413.392 949.981 411.975 949.378C410.614 948.79 410.614 948.79 409.225 948.191C409.225 947.531 409.225 946.871 409.225 946.191C408.61 945.997 407.995 945.804 407.362 945.605C406.149 945.214 406.149 945.214 404.912 944.816C403.712 944.433 403.712 944.433 402.487 944.042C400.225 943.191 400.225 943.191 397.225 941.191C397.225 940.531 397.225 939.871 397.225 939.191C396.339 938.94 395.454 938.69 394.541 938.433C391.094 937.142 388.966 935.67 386.162 933.316C385.346 932.638 384.53 931.959 383.69 931.261C382.47 930.236 382.47 930.236 381.225 929.191C380.344 928.493 379.464 927.796 378.557 927.077C376.225 925.191 376.225 925.191 373.975 922.878C370.936 919.908 367.699 917.395 364.311 914.839C362.458 913.375 360.772 911.974 359.225 910.191C359.225 909.531 359.225 908.871 359.225 908.191C358.524 908.005 357.822 907.819 357.1 907.628C353.655 905.905 352.08 903.816 349.701 900.859C347.825 898.738 345.662 897.601 343.225 896.191C342.585 895.386 341.946 894.582 341.287 893.753C338.927 890.821 336.352 889.253 333.225 887.191C332.218 885.862 331.218 884.529 330.225 883.191C328.572 882.168 326.907 881.164 325.225 880.191C324.895 879.531 324.565 878.871 324.225 878.191C323.379 877.696 322.534 877.201 321.662 876.691C320.456 875.948 320.456 875.948 319.225 875.191C319.225 874.531 319.225 873.871 319.225 873.191C318.52 872.943 317.815 872.696 317.088 872.441C313.856 871.03 311.262 869.265 308.412 867.191C307.437 866.489 306.461 865.788 305.455 865.066C304.351 864.137 304.351 864.137 303.225 863.191C303.225 862.531 303.225 861.871 303.225 861.191C302.462 861.067 301.699 860.943 300.912 860.816C298.225 860.191 298.225 860.191 295.225 858.191C295.225 857.531 295.225 856.871 295.225 856.191C294.689 856.108 294.152 856.026 293.6 855.941C290.396 854.929 288.017 853.052 285.225 851.191C282.898 850.175 280.564 849.176 278.225 848.191C275.854 846.914 273.546 845.556 271.225 844.191C270.565 843.861 269.905 843.531 269.225 843.191C269.225 842.531 269.225 841.871 269.225 841.191C268.266 841.314 268.266 841.314 267.287 841.441C262.822 841.076 259.216 839.138 255.225 837.191C255.225 836.531 255.225 835.871 255.225 835.191C253.585 835.16 253.585 835.16 251.912 835.128C246.664 834.52 242.994 831.75 238.74 828.784C236.396 827.113 236.396 827.113 234.084 826.659C231.706 826.06 230.892 824.96 229.225 823.191C227.785 822.204 226.325 821.247 224.85 820.316C219.19 816.588 215.275 812.409 211.471 806.862C210.15 804.983 210.15 804.983 207.787 802.941C203.692 798.546 199.225 792.356 199.225 786.191C198.565 786.191 197.905 786.191 197.225 786.191C196.895 784.541 196.565 782.891 196.225 781.191C195.565 781.191 194.905 781.191 194.225 781.191C192.198 776.654 190.509 772.126 188.987 767.398C188.272 765.327 187.446 763.37 186.537 761.378C185.225 758.191 185.225 758.191 185.225 754.191C184.565 754.191 183.905 754.191 183.225 754.191C182.25 750.528 181.298 746.86 180.35 743.191C180.08 742.18 179.811 741.169 179.533 740.128C175.834 725.692 174.891 711.597 174.964 696.773C174.975 694.193 174.964 691.614 174.951 689.034C174.94 676.617 175.074 664.019 179.225 652.191C179.711 649.738 180.168 647.279 180.6 644.816C181.942 637.625 184.158 632.291 188.225 626.191C188.68 624.238 189.135 622.285 189.584 620.331C190.602 616.931 192.349 614.192 194.225 611.191C194.885 611.191 195.545 611.191 196.225 611.191C196.41 610.242 196.596 609.293 196.787 608.316C198.322 602.873 201.92 598.681 205.225 594.191C205.983 593.05 206.735 591.906 207.475 590.753C209.225 588.191 209.225 588.191 210.697 586.855C212.635 584.744 213.406 582.676 214.412 580.003C214.757 579.102 215.101 578.201 215.455 577.273C215.709 576.586 215.963 575.898 216.225 575.191C216.885 575.191 217.545 575.191 218.225 575.191C218.11 573.107 217.983 571.023 217.85 568.941C217.745 567.2 217.745 567.2 217.639 565.425C217.254 562.415 216.602 560.81 215.225 558.191C215.225 556.871 215.225 555.551 215.225 554.191C214.235 554.191 213.245 554.191 212.225 554.191C209.225 550.857 209.225 550.857 209.225 548.191C208.462 547.902 207.699 547.613 206.912 547.316C204.225 546.191 204.225 546.191 201.225 544.191C199.246 543.564 199.246 543.564 197.162 543.128C194.972 542.635 193.24 542.198 191.225 541.191C191.225 540.531 191.225 539.871 191.225 539.191C190.214 539.087 189.204 538.984 188.162 538.878C184.101 538.169 180.987 536.841 177.225 535.191C176.009 534.901 174.794 534.61 173.541 534.312C169.019 533.22 164.866 531.524 160.6 529.691C155.849 527.67 151.14 525.785 146.225 524.191C145.565 523.861 144.905 523.531 144.225 523.191C144.225 522.531 144.225 521.871 144.225 521.191C143.338 521.067 142.451 520.943 141.537 520.816C138.521 520.246 136.022 519.424 133.225 518.191C133.225 517.531 133.225 516.871 133.225 516.191C132.4 515.943 131.575 515.696 130.725 515.441C126.701 514.004 123.005 512.167 119.225 510.191C119.225 509.531 119.225 508.871 119.225 508.191C118.235 507.984 117.245 507.778 116.225 507.566C111.551 506.246 107.718 503.529 104.225 500.191C104.225 499.531 104.225 498.871 104.225 498.191C103.142 497.881 103.142 497.881 102.037 497.566C98.2526 495.715 96.7022 493.588 94.2248 490.191C94.2248 489.531 94.2248 488.871 94.2248 488.191C93.6757 487.955 93.1265 487.719 92.5608 487.476C85.0265 483.331 78.8124 476.478 74.5412 469.101C73.287 467.063 73.287 467.063 71.1272 465.624C69.2248 464.191 69.2248 464.191 68.2248 461.191C67.5648 460.861 66.9048 460.531 66.2248 460.191C65.2425 458.455 64.2625 456.718 63.3069 454.968C61.9239 452.696 60.1302 451.03 58.2248 449.191C57.7298 447.706 57.7298 447.706 57.2248 446.191C56.5648 445.572 55.9048 444.953 55.2248 444.316C52.9542 441.903 52.5847 440.43 52.2248 437.191C51.2348 436.861 50.2448 436.531 49.2248 436.191C48.1194 434.581 48.1194 434.581 47.0373 432.441C44.225 427.083 41.0322 422.023 37.799 416.913C36.2248 414.191 36.2248 414.191 36.2248 412.191C35.5648 412.191 34.9048 412.191 34.2248 412.191C33.5751 410.582 33.5751 410.582 32.9123 408.941C31.9898 406.766 31.2089 405.171 29.7248 403.316C27.3562 399.96 26.4017 396.097 25.2248 392.191C24.5648 392.191 23.9048 392.191 23.2248 392.191C22.7192 390.755 22.2205 389.317 21.7248 387.878C21.4464 387.078 21.1679 386.277 20.8811 385.452C20.2248 383.191 20.2248 383.191 20.2248 380.191C19.5648 380.191 18.9048 380.191 18.2248 380.191C17.8123 379.077 17.3998 377.963 16.9748 376.816C15.7514 373.545 14.4717 370.302 13.1623 367.066C9.22482 357.229 9.22482 357.229 9.22482 352.191C8.56482 352.191 7.90482 352.191 7.22482 352.191C6.23632 348.693 5.26074 345.192 4.28732 341.691C4.00953 340.708 3.73173 339.726 3.44552 338.714C0.775946 329.065 0.0435634 320.317 0.0373205 310.316C0.0189513 308.778 0.0189513 308.778 0.000211085 307.21C-0.0159695 298.721 0.893937 290.717 4.16232 282.816C4.48072 282.024 4.79912 281.233 5.12716 280.417C6.28059 278.077 7.50744 276.155 9.22482 274.191C9.88482 274.191 10.5448 274.191 11.2248 274.191C11.2248 273.531 11.2248 272.871 11.2248 272.191C12.6789 271.788 12.6789 271.788 14.1623 271.378C15.1729 270.986 16.1836 270.594 17.2248 270.191C17.5548 269.201 17.8848 268.211 18.2248 267.191C24.6519 263.244 31.3172 263.811 38.6623 263.941C39.9126 263.953 41.1629 263.965 42.4511 263.978C72.5985 264.365 72.5985 264.365 86.6506 269.335C95.6265 272.318 104.921 274.527 114.225 276.191C114.225 276.851 114.225 277.511 114.225 278.191C115.277 278.355 115.277 278.355 116.35 278.523C121.585 279.398 126.385 280.456 131.299 282.46C134.532 283.687 137.86 284.409 141.225 285.191C141.225 285.851 141.225 286.511 141.225 287.191C141.938 287.327 142.651 287.464 143.385 287.605C150.401 289.052 156.858 290.869 163.225 294.191C164.553 294.624 165.887 295.039 167.225 295.441C171.445 296.781 175.3 298.666 179.225 300.691C183.808 303.053 188.306 305.079 193.248 306.569C196.348 307.543 199.261 308.866 202.225 310.191C202.225 310.851 202.225 311.511 202.225 312.191C202.828 312.312 203.431 312.433 204.053 312.558C204.852 312.725 205.651 312.893 206.475 313.066C207.658 313.309 207.658 313.309 208.865 313.558C211.193 314.182 213.115 315.039 215.225 316.191C215.225 316.851 215.225 317.511 215.225 318.191C217.865 318.851 220.505 319.511 223.225 320.191C223.225 320.851 223.225 321.511 223.225 322.191C224.174 322.417 225.122 322.644 226.1 322.878C230.276 324.061 233.966 325.978 237.811 327.964C240.886 329.527 244.052 330.839 247.225 332.191C249.909 333.492 252.566 334.838 255.225 336.191C255.225 336.851 255.225 337.511 255.225 338.191C255.761 338.314 256.297 338.438 256.85 338.566C259.689 339.313 262.447 340.244 265.225 341.191C265.225 341.851 265.225 342.511 265.225 343.191C265.793 343.372 266.362 343.554 266.947 343.741C271.832 345.331 276.535 347.095 281.225 349.191C281.142 348.221 281.06 347.252 280.975 346.253C280.975 340.46 283.48 335.208 287.225 330.878C287.885 330.321 288.545 329.764 289.225 329.191C289.905 328.489 290.586 327.788 291.287 327.066C293.225 325.191 293.225 325.191 296.225 323.191C296.654 321.253 296.654 321.253 296.55 319.004C296.546 318.139 296.543 317.275 296.539 316.384C296.511 314.979 296.511 314.979 296.483 313.546C296.476 312.584 296.469 311.622 296.463 310.631C296.439 307.546 296.395 304.462 296.35 301.378C296.315 298.304 296.284 295.231 296.258 292.157C296.242 290.243 296.218 288.328 296.188 286.414C296.141 282.201 296.127 278.297 297.225 274.191C297.885 274.191 298.545 274.191 299.225 274.191C299.198 273.038 299.171 271.886 299.143 270.698C299.146 266.368 299.716 262.308 300.537 258.066C300.655 257.389 300.773 256.712 300.895 256.015C301.721 251.633 303.114 248.1 305.225 244.191C305.658 242.994 306.091 241.798 306.537 240.566C308.243 235.856 310.532 231.47 312.822 227.023C314.252 224.258 314.252 224.258 315.221 221.515C316.225 219.191 316.225 219.191 317.78 217.796C320.02 215.307 319.96 212.777 320.35 209.503C320.505 208.259 320.659 207.015 320.819 205.734C320.953 204.564 321.087 203.395 321.225 202.191C321.432 200.565 321.64 198.94 321.85 197.316C321.974 196.284 322.097 195.253 322.225 194.191C322.885 194.191 323.545 194.191 324.225 194.191C324.389 193.264 324.389 193.264 324.557 192.319C325.518 187.187 326.771 182.382 328.514 177.464C329.257 175.087 329.689 172.771 330.1 170.316C331.008 165.375 332.88 161.197 335.049 156.687C336.353 153.919 337.353 151.122 338.225 148.191C338.885 148.191 339.545 148.191 340.225 148.191C340.288 147.631 340.351 147.072 340.416 146.495C341.49 139.465 344.214 133.662 347.502 127.448C348.814 124.967 350.009 122.495 351.162 119.941C353.691 114.883 357.238 110.186 361.225 106.191C362.215 106.191 363.205 106.191 364.225 106.191C364.493 105.427 364.761 104.664 365.037 103.878C366.216 101.21 367.128 100.126 369.225 98.1906C369.905 97.3243 370.586 96.4581 371.287 95.5656C373.225 93.1906 373.225 93.1906 375.225 92.1906C375.899 90.527 376.565 88.8599 377.225 87.1906C378.218 85.8521 379.218 84.519 380.225 83.1906C380.67 82.2753 381.114 81.3601 381.572 80.4171C383.223 77.1934 385.079 74.4166 387.225 71.5031C387.905 70.5711 388.586 69.6391 389.287 68.6788C390.85 66.6719 392.383 64.9298 394.225 63.1906C395.029 62.3656 395.834 61.5406 396.662 60.6906C402.3 55.1906 402.3 55.1906 405.225 55.1906C405.225 54.5306 405.225 53.8706 405.225 53.1906C408.686 50.1906 408.686 50.1906 411.225 50.1906C411.225 49.5306 411.225 48.8706 411.225 48.1906C412.13 47.7014 412.13 47.7014 413.053 47.2023C413.852 46.7653 414.651 46.3283 415.475 45.8781C416.264 45.4488 417.053 45.0195 417.865 44.5773C420.238 43.2493 420.238 43.2493 422.287 41.5968C425.038 39.6007 427.959 39.007 431.225 38.1906C431.225 37.5306 431.225 36.8706 431.225 36.1906C435.18 33.8498 439.028 31.7837 443.287 30.0343C445.589 29.0321 447.804 27.8978 450.037 26.7531C454.273 24.606 458.565 22.782 462.998 21.0851C465.233 20.2379 465.233 20.2379 467.264 19.0773C469.225 18.1906 469.225 18.1906 473.225 18.1906C473.225 17.5306 473.225 16.8706 473.225 16.1906C478.418 14.349 483.544 12.8441 488.936 11.714C491.262 11.1821 493.509 10.5241 495.787 9.81556C508.39 5.99761 520.044 3.5411 533.225 3.19056C533.225 2.53056 533.225 1.87056 533.225 1.19056C540.989 -0.0568607 548.757 -0.00709813 556.6 0.00305842Z" fill="#FEFEFE"/>
<path d="M812.975 772.628C815.724 773.315 816.701 773.784 818.225 776.191C818.767 779.243 818.817 781.223 817.17 783.913C815.85 785.566 815.85 785.566 813.225 788.191C812.565 788.191 811.905 788.191 811.225 788.191C811.122 788.954 811.019 789.717 810.912 790.503C810.338 793.586 809.571 796.387 808.662 799.378C806.195 808.522 806.889 815.984 809.412 825.003C809.608 825.721 809.804 826.438 810.006 827.177C811.538 832.218 813.712 835.283 817.225 839.191C817.593 840.515 817.937 841.847 818.225 843.191C819.215 843.851 820.205 844.511 821.225 845.191C821.912 847.816 821.912 847.816 822.225 850.191C822.885 850.191 823.545 850.191 824.225 850.191C832.82 861.089 834.516 876.789 833.225 890.191C831.533 901.574 831.533 901.574 829.225 906.191C828.565 906.191 827.905 906.191 827.225 906.191C827.142 906.933 827.06 907.676 826.975 908.441C826.068 911.766 824.706 912.855 822.225 915.191C821.689 916.098 821.152 917.006 820.6 917.941C820.146 918.683 819.692 919.426 819.225 920.191C818.565 920.191 817.905 920.191 817.225 920.191C817.225 920.851 817.225 921.511 817.225 922.191C814.412 922.816 814.412 922.816 811.225 923.191C809.74 922.201 809.74 922.201 808.225 921.191C808.385 919.9 808.545 918.61 808.709 917.28C809.864 906.813 810.792 895.183 806.979 885.198C806.113 882.892 805.659 880.611 805.225 878.191C804.565 878.191 803.905 878.191 803.225 878.191C802.551 876.756 801.886 875.318 801.225 873.878C800.668 872.677 800.668 872.677 800.1 871.452C799.225 869.191 799.225 869.191 799.225 866.191C798.565 866.191 797.905 866.191 797.225 866.191C795.569 863.96 795.569 863.96 793.725 861.003C793.116 860.04 792.508 859.077 791.881 858.085C790.399 855.494 789.248 852.989 788.225 850.191C787.565 850.191 786.905 850.191 786.225 850.191C782.412 841.966 780.747 834.822 780.787 825.753C780.79 824.914 780.792 824.074 780.795 823.209C780.967 816.035 782.681 810.008 785.725 803.503C786.148 802.592 786.57 801.68 787.006 800.741C788.056 798.545 789.126 796.363 790.225 794.191C790.885 794.191 791.545 794.191 792.225 794.191C792.885 792.871 793.545 791.551 794.225 790.191C794.885 790.191 795.545 790.191 796.225 790.191C796.391 789.305 796.391 789.305 796.561 788.401C798.446 782.124 806.546 773.943 812.975 772.628Z" fill="#FDFDFD"/>
</svg>
